<mxfile host="65bd71144e">
    <diagram id="7yiu5rjuNcQsvgtusuqP" name="full-deployment">
        <mxGraphModel dx="1080" dy="544" grid="1" gridSize="10" guides="1" tooltips="1" connect="1" arrows="1" fold="1" page="1" pageScale="1" pageWidth="850" pageHeight="1100" math="0" shadow="0">
            <root>
                <mxCell id="0"/>
                <mxCell id="1" parent="0"/>
                <mxCell id="6" style="edgeStyle=none;html=1;entryX=0;entryY=0.5;entryDx=0;entryDy=0;exitX=1;exitY=0.5;exitDx=0;exitDy=0;" parent="1" source="2" target="5" edge="1">
                    <mxGeometry relative="1" as="geometry"/>
                </mxCell>
                <mxCell id="2" value="MQTT publisher" style="rounded=0;whiteSpace=wrap;html=1;" parent="1" vertex="1">
                    <mxGeometry x="30" y="70" width="120" height="60" as="geometry"/>
                </mxCell>
                <mxCell id="7" style="edgeStyle=none;html=1;exitX=1;exitY=0.5;exitDx=0;exitDy=0;" parent="1" source="3" edge="1">
                    <mxGeometry relative="1" as="geometry">
                        <mxPoint x="190" y="180" as="targetPoint"/>
                    </mxGeometry>
                </mxCell>
                <mxCell id="3" value="MQTT publisher" style="rounded=0;whiteSpace=wrap;html=1;" parent="1" vertex="1">
                    <mxGeometry x="30" y="150" width="120" height="60" as="geometry"/>
                </mxCell>
                <mxCell id="8" style="edgeStyle=none;html=1;entryX=0;entryY=0.5;entryDx=0;entryDy=0;exitX=1;exitY=0.5;exitDx=0;exitDy=0;" parent="1" source="4" target="5" edge="1">
                    <mxGeometry relative="1" as="geometry"/>
                </mxCell>
                <mxCell id="4" value="MQTT publisher" style="rounded=0;whiteSpace=wrap;html=1;" parent="1" vertex="1">
                    <mxGeometry x="30" y="230" width="120" height="60" as="geometry"/>
                </mxCell>
                <mxCell id="9" value="Grafana" style="rounded=0;whiteSpace=wrap;html=1;" parent="1" vertex="1">
                    <mxGeometry x="700" y="130" width="120" height="40" as="geometry"/>
                </mxCell>
                <mxCell id="15" style="edgeStyle=none;html=1;" parent="1" source="10" target="9" edge="1">
                    <mxGeometry relative="1" as="geometry"/>
                </mxCell>
                <mxCell id="10" value="Prometheus" style="rounded=0;whiteSpace=wrap;html=1;" parent="1" vertex="1">
                    <mxGeometry x="700" y="200" width="120" height="40" as="geometry"/>
                </mxCell>
                <mxCell id="14" style="edgeStyle=none;html=1;" parent="1" source="11" target="10" edge="1">
                    <mxGeometry relative="1" as="geometry"/>
                </mxCell>
                <mxCell id="11" value="Storm exporter" style="rounded=0;whiteSpace=wrap;html=1;" parent="1" vertex="1">
                    <mxGeometry x="700" y="260" width="120" height="40" as="geometry"/>
                </mxCell>
                <mxCell id="18" value="Worker process" style="rounded=0;whiteSpace=wrap;html=1;" parent="1" vertex="1">
                    <mxGeometry x="60" y="400" width="120" height="60" as="geometry"/>
                </mxCell>
                <mxCell id="19" value="Worker process" style="rounded=0;whiteSpace=wrap;html=1;" parent="1" vertex="1">
                    <mxGeometry x="200" y="400" width="120" height="60" as="geometry"/>
                </mxCell>
                <mxCell id="20" value="Worker process" style="rounded=0;whiteSpace=wrap;html=1;" parent="1" vertex="1">
                    <mxGeometry x="60" y="480" width="120" height="60" as="geometry"/>
                </mxCell>
                <mxCell id="21" value="Worker process" style="rounded=0;whiteSpace=wrap;html=1;" parent="1" vertex="1">
                    <mxGeometry x="200" y="480" width="120" height="60" as="geometry"/>
                </mxCell>
                <mxCell id="47" value="Openstack" style="swimlane;whiteSpace=wrap;html=1;" parent="1" vertex="1">
                    <mxGeometry x="20" y="40" width="640" height="260" as="geometry"/>
                </mxCell>
                <mxCell id="5" value="MQTT broker" style="shape=process;whiteSpace=wrap;html=1;backgroundOutline=1;" parent="47" vertex="1">
                    <mxGeometry x="150" y="110" width="120" height="60" as="geometry"/>
                </mxCell>
                <mxCell id="16" value="Nimbus" style="rounded=0;whiteSpace=wrap;html=1;" parent="47" vertex="1">
                    <mxGeometry x="290" y="110" width="120" height="60" as="geometry"/>
                </mxCell>
                <mxCell id="17" value="Zookeeper" style="rounded=0;whiteSpace=wrap;html=1;" parent="47" vertex="1">
                    <mxGeometry x="430" y="110" width="120" height="60" as="geometry"/>
                </mxCell>
                <mxCell id="48" style="edgeStyle=none;html=1;entryX=0;entryY=0.5;entryDx=0;entryDy=0;" parent="47" source="16" target="17" edge="1">
                    <mxGeometry relative="1" as="geometry"/>
                </mxCell>
                <mxCell id="50" value="" style="edgeStyle=elbowEdgeStyle;html=1;entryX=1;entryY=0.5;entryDx=0;entryDy=0;" parent="1" target="26" edge="1">
                    <mxGeometry relative="1" as="geometry">
                        <mxPoint x="820" y="280" as="sourcePoint"/>
                        <mxPoint x="760" y="400" as="targetPoint"/>
                        <Array as="points">
                            <mxPoint x="840" y="360"/>
                        </Array>
                    </mxGeometry>
                </mxCell>
                <mxCell id="51" value="Monitoring stack" style="swimlane;whiteSpace=wrap;html=1;" parent="1" vertex="1">
                    <mxGeometry x="690" y="100" width="140" height="210" as="geometry"/>
                </mxCell>
                <mxCell id="52" value="Supervisor" style="swimlane;whiteSpace=wrap;html=1;" parent="1" vertex="1">
                    <mxGeometry x="50" y="370" width="280" height="180" as="geometry"/>
                </mxCell>
                <mxCell id="53" value="Worker process" style="rounded=0;whiteSpace=wrap;html=1;" parent="1" vertex="1">
                    <mxGeometry x="360" y="400" width="120" height="60" as="geometry"/>
                </mxCell>
                <mxCell id="54" value="Worker process" style="rounded=0;whiteSpace=wrap;html=1;" parent="1" vertex="1">
                    <mxGeometry x="500" y="400" width="120" height="60" as="geometry"/>
                </mxCell>
                <mxCell id="55" value="Worker process" style="rounded=0;whiteSpace=wrap;html=1;" parent="1" vertex="1">
                    <mxGeometry x="360" y="480" width="120" height="60" as="geometry"/>
                </mxCell>
                <mxCell id="56" value="Worker process" style="rounded=0;whiteSpace=wrap;html=1;" parent="1" vertex="1">
                    <mxGeometry x="500" y="480" width="120" height="60" as="geometry"/>
                </mxCell>
                <mxCell id="57" value="Supervisor" style="swimlane;whiteSpace=wrap;html=1;" parent="1" vertex="1">
                    <mxGeometry x="350" y="370" width="280" height="180" as="geometry">
                        <mxRectangle x="340" y="520" width="100" height="30" as="alternateBounds"/>
                    </mxGeometry>
                </mxCell>
                <mxCell id="58" value="AWS" style="swimlane;whiteSpace=wrap;html=1;" parent="1" vertex="1">
                    <mxGeometry x="40" y="340" width="600" height="220" as="geometry"/>
                </mxCell>
                <mxCell id="59" value="Localhost" style="swimlane;whiteSpace=wrap;html=1;" parent="1" vertex="1">
                    <mxGeometry x="680" y="70" width="170" height="450" as="geometry"/>
                </mxCell>
                <mxCell id="28" style="edgeStyle=none;html=1;entryX=0.5;entryY=0;entryDx=0;entryDy=0;" parent="59" source="26" target="27" edge="1">
                    <mxGeometry relative="1" as="geometry"/>
                </mxCell>
                <mxCell id="26" value="Resources forecast" style="rounded=0;whiteSpace=wrap;html=1;" parent="59" vertex="1">
                    <mxGeometry x="20" y="290" width="120" height="60" as="geometry"/>
                </mxCell>
                <mxCell id="49" value="Autoscaling stack" style="swimlane;whiteSpace=wrap;html=1;" parent="59" vertex="1">
                    <mxGeometry x="10" y="260" width="140" height="180" as="geometry"/>
                </mxCell>
                <mxCell id="27" value="Autoscaler" style="rounded=0;whiteSpace=wrap;html=1;" parent="49" vertex="1">
                    <mxGeometry x="10" y="110" width="120" height="60" as="geometry"/>
                </mxCell>
                <mxCell id="60" style="edgeStyle=elbowEdgeStyle;html=1;entryX=0.5;entryY=1;entryDx=0;entryDy=0;elbow=vertical;" parent="1" source="27" target="57" edge="1">
                    <mxGeometry relative="1" as="geometry">
                        <Array as="points">
                            <mxPoint x="630" y="560"/>
                        </Array>
                    </mxGeometry>
                </mxCell>
                <mxCell id="61" style="edgeStyle=elbowEdgeStyle;html=1;entryX=0.5;entryY=1;entryDx=0;entryDy=0;elbow=vertical;" parent="1" source="27" target="52" edge="1">
                    <mxGeometry relative="1" as="geometry">
                        <Array as="points">
                            <mxPoint x="480" y="560"/>
                        </Array>
                    </mxGeometry>
                </mxCell>
                <mxCell id="62" style="edgeStyle=none;html=1;entryX=0.5;entryY=0;entryDx=0;entryDy=0;" parent="1" source="5" target="52" edge="1">
                    <mxGeometry relative="1" as="geometry"/>
                </mxCell>
                <mxCell id="64" style="edgeStyle=none;html=1;entryX=0.5;entryY=0;entryDx=0;entryDy=0;" parent="1" source="5" target="57" edge="1">
                    <mxGeometry relative="1" as="geometry"/>
                </mxCell>
                <mxCell id="65" style="edgeStyle=none;html=1;entryX=0.5;entryY=1;entryDx=0;entryDy=0;exitX=0.5;exitY=0;exitDx=0;exitDy=0;" parent="1" source="52" target="17" edge="1">
                    <mxGeometry relative="1" as="geometry"/>
                </mxCell>
                <mxCell id="67" style="edgeStyle=elbowEdgeStyle;html=1;exitX=0.75;exitY=0;exitDx=0;exitDy=0;elbow=vertical;entryX=0.5;entryY=1;entryDx=0;entryDy=0;" edge="1" parent="1" source="52" target="11">
                    <mxGeometry relative="1" as="geometry">
                        <mxPoint x="730" y="300" as="targetPoint"/>
                        <Array as="points">
                            <mxPoint x="510" y="320"/>
                        </Array>
                    </mxGeometry>
                </mxCell>
                <mxCell id="68" style="edgeStyle=elbowEdgeStyle;html=1;entryX=0.5;entryY=1;entryDx=0;entryDy=0;elbow=vertical;exitX=0.75;exitY=0;exitDx=0;exitDy=0;" edge="1" parent="1" source="57" target="11">
                    <mxGeometry relative="1" as="geometry">
                        <Array as="points">
                            <mxPoint x="620" y="320"/>
                        </Array>
                    </mxGeometry>
                </mxCell>
                <mxCell id="66" style="edgeStyle=none;html=1;exitX=0.5;exitY=0;exitDx=0;exitDy=0;" parent="1" edge="1" source="57">
                    <mxGeometry relative="1" as="geometry">
                        <mxPoint x="510" y="210" as="targetPoint"/>
                        <mxPoint x="490" y="350" as="sourcePoint"/>
                    </mxGeometry>
                </mxCell>
            </root>
        </mxGraphModel>
    </diagram>
</mxfile>